<svg width="256" height="256" viewBox="0 0 256 256" fill="none" xmlns="http://www.w3.org/2000/svg" data-fg-boop102="5.9:5.18015:/src/app/components/IconExporter.tsx:147:9:8928:3610:e:svg"><rect x="40" y="120" width="80" height="96" fill="#4A5568" data-fg-boop103="5.9:5.18015:/src/app/components/IconExporter.tsx:148:11:9055:61:e:rect"/><rect x="120" y="100" width="96" height="116" fill="#5A6B7D" data-fg-boop104="5.9:5.18015:/src/app/components/IconExporter.tsx:149:11:9127:63:e:rect"/><path d="M 35 120 L 60 105 L 85 105 L 125 120 Z" fill="#3B4556" data-fg-boop105="5.9:5.18015:/src/app/components/IconExporter.tsx:150:11:9201:66:e:path"/><path d="M 115 100 L 145 85 L 185 85 L 220 100 Z" fill="#3B4556" data-fg-boop106="5.9:5.18015:/src/app/components/IconExporter.tsx:151:11:9278:67:e:path"/><rect x="55" y="80" width="16" height="25" fill="#3B4556" data-fg-boop107="5.9:5.18015:/src/app/components/IconExporter.tsx:152:11:9356:60:e:rect"/><rect x="90" y="85" width="16" height="20" fill="#3B4556" data-fg-boop108="5.9:5.18015:/src/app/components/IconExporter.tsx:153:11:9427:60:e:rect"/><rect x="180" y="65" width="16" height="20" fill="#3B4556" data-fg-boop109="5.9:5.18015:/src/app/components/IconExporter.tsx:154:11:9498:61:e:rect"/><rect x="52" y="135" width="16" height="18" fill="#3B82F6" opacity="0.8" data-fg-boop110="5.9:5.18015:/src/app/components/IconExporter.tsx:155:11:9570:75:e:rect"/><rect x="78" y="135" width="16" height="18" fill="#3B82F6" opacity="0.8" data-fg-boop111="5.9:5.18015:/src/app/components/IconExporter.tsx:156:11:9656:75:e:rect"/><rect x="52" y="165" width="16" height="18" fill="#3B82F6" opacity="0.8" data-fg-boop112="5.9:5.18015:/src/app/components/IconExporter.tsx:157:11:9742:75:e:rect"/><rect x="78" y="165" width="16" height="18" fill="#3B82F6" opacity="0.8" data-fg-boop113="5.9:5.18015:/src/app/components/IconExporter.tsx:158:11:9828:75:e:rect"/><rect x="135" y="115" width="20" height="20" fill="#3B82F6" opacity="0.8" data-fg-boop114="5.9:5.18015:/src/app/components/IconExporter.tsx:159:11:9914:76:e:rect"/><rect x="170" y="115" width="20" height="20" fill="#3B82F6" opacity="0.8" data-fg-boop115="5.9:5.18015:/src/app/components/IconExporter.tsx:160:11:10001:76:e:rect"/><rect x="135" y="150" width="20" height="20" fill="#3B82F6" opacity="0.8" data-fg-boop116="5.9:5.18015:/src/app/components/IconExporter.tsx:161:11:10088:76:e:rect"/><rect x="170" y="150" width="20" height="20" fill="#3B82F6" opacity="0.8" data-fg-boop117="5.9:5.18015:/src/app/components/IconExporter.tsx:162:11:10175:76:e:rect"/><rect x="135" y="185" width="20" height="20" fill="#3B82F6" opacity="0.8" data-fg-boop118="5.9:5.18015:/src/app/components/IconExporter.tsx:163:11:10262:76:e:rect"/><rect x="170" y="185" width="20" height="20" fill="#3B82F6" opacity="0.8" data-fg-boop119="5.9:5.18015:/src/app/components/IconExporter.tsx:164:11:10349:76:e:rect"/><g transform="translate(168, 50)" data-fg-boop120="5.9:5.18015:/src/app/components/IconExporter.tsx:165:11:10436:861:e:g"><circle cx="0" cy="0" r="24" fill="#60A5FA" data-fg-boop121="5.9:5.18015:/src/app/components/IconExporter.tsx:166:13:10483:46:e:circle"/><circle cx="0" cy="0" r="16" fill="#3B82F6" data-fg-boop122="5.9:5.18015:/src/app/components/IconExporter.tsx:167:13:10542:46:e:circle"/><circle cx="0" cy="0" r="8" fill="#2563EB" data-fg-boop123="5.9:5.18015:/src/app/components/IconExporter.tsx:168:13:10601:45:e:circle"/><rect x="-3" y="-28" width="6" height="8" fill="#60A5FA" data-fg-boop124="5.9:5.18015:/src/app/components/IconExporter.tsx:169:13:10659:59:e:rect"/><rect x="-3" y="20" width="6" height="8" fill="#60A5FA" data-fg-boop125="5.9:5.18015:/src/app/components/IconExporter.tsx:170:13:10731:58:e:rect"/><rect x="-28" y="-3" width="8" height="6" fill="#60A5FA" data-fg-boop126="5.9:5.18015:/src/app/components/IconExporter.tsx:171:13:10802:59:e:rect"/><rect x="20" y="-3" width="8" height="6" fill="#60A5FA" data-fg-boop127="5.9:5.18015:/src/app/components/IconExporter.tsx:172:13:10874:58:e:rect"/><g transform="rotate(45)" data-fg-boop128="5.9:5.18015:/src/app/components/IconExporter.tsx:173:13:10945:337:e:g"><rect x="-3" y="-28" width="6" height="8" fill="#60A5FA" data-fg-boop129="5.9:5.18015:/src/app/components/IconExporter.tsx:174:15:10986:59:e:rect"/><rect x="-3" y="20" width="6" height="8" fill="#60A5FA" data-fg-boop130="5.9:5.18015:/src/app/components/IconExporter.tsx:175:15:11060:58:e:rect"/><rect x="-28" y="-3" width="8" height="6" fill="#60A5FA" data-fg-boop131="5.9:5.18015:/src/app/components/IconExporter.tsx:176:15:11133:59:e:rect"/><rect x="20" y="-3" width="8" height="6" fill="#60A5FA" data-fg-boop132="5.9:5.18015:/src/app/components/IconExporter.tsx:177:15:11207:58:e:rect"/></g></g><g transform="translate(70, 65)" data-fg-boop133="5.9:5.18015:/src/app/components/IconExporter.tsx:180:11:11308:510:e:g"><circle cx="0" cy="0" r="16" fill="#93C5FD" data-fg-boop134="5.9:5.18015:/src/app/components/IconExporter.tsx:181:13:11354:46:e:circle"/><circle cx="0" cy="0" r="11" fill="#60A5FA" data-fg-boop135="5.9:5.18015:/src/app/components/IconExporter.tsx:182:13:11413:46:e:circle"/><circle cx="0" cy="0" r="5" fill="#3B82F6" data-fg-boop136="5.9:5.18015:/src/app/components/IconExporter.tsx:183:13:11472:45:e:circle"/><rect x="-2" y="-19" width="4" height="6" fill="#93C5FD" data-fg-boop137="5.9:5.18015:/src/app/components/IconExporter.tsx:184:13:11530:59:e:rect"/><rect x="-2" y="13" width="4" height="6" fill="#93C5FD" data-fg-boop138="5.9:5.18015:/src/app/components/IconExporter.tsx:185:13:11602:58:e:rect"/><rect x="-19" y="-2" width="6" height="4" fill="#93C5FD" data-fg-boop139="5.9:5.18015:/src/app/components/IconExporter.tsx:186:13:11673:59:e:rect"/><rect x="13" y="-2" width="6" height="4" fill="#93C5FD" data-fg-boop140="5.9:5.18015:/src/app/components/IconExporter.tsx:187:13:11745:58:e:rect"/></g><rect x="30" y="216" width="196" height="20" rx="10" fill="#64748B" data-fg-boop141="5.9:5.18015:/src/app/components/IconExporter.tsx:189:11:11829:70:e:rect"/><rect x="35" y="221" width="186" height="10" rx="5" fill="#475569" data-fg-boop142="5.9:5.18015:/src/app/components/IconExporter.tsx:190:11:11910:69:e:rect"/><rect x="45" y="223" width="18" height="6" rx="1" fill="#3B82F6" data-fg-boop143="5.9:5.18015:/src/app/components/IconExporter.tsx:191:11:11990:67:e:rect"/><rect x="75" y="223" width="18" height="6" rx="1" fill="#3B82F6" data-fg-boop144="5.9:5.18015:/src/app/components/IconExporter.tsx:192:11:12068:67:e:rect"/><rect x="105" y="223" width="18" height="6" rx="1" fill="#3B82F6" data-fg-boop145="5.9:5.18015:/src/app/components/IconExporter.tsx:193:11:12146:68:e:rect"/><rect x="135" y="223" width="18" height="6" rx="1" fill="#3B82F6" data-fg-boop146="5.9:5.18015:/src/app/components/IconExporter.tsx:194:11:12225:68:e:rect"/><rect x="165" y="223" width="18" height="6" rx="1" fill="#3B82F6" data-fg-boop147="5.9:5.18015:/src/app/components/IconExporter.tsx:195:11:12304:68:e:rect"/><rect x="195" y="223" width="18" height="6" rx="1" fill="#3B82F6" data-fg-boop148="5.9:5.18015:/src/app/components/IconExporter.tsx:196:11:12383:68:e:rect"/><rect x="52" y="185" width="22" height="31" fill="#2D3748" data-fg-boop149="5.9:5.18015:/src/app/components/IconExporter.tsx:197:11:12462:61:e:rect"/></svg>